<?xml version="1.0" standalone="no"?>
<!DOCTYPE svg PUBLIC "-//W3C//DTD SVG 20010904//EN"
 "http://www.w3.org/TR/2001/REC-SVG-20010904/DTD/svg10.dtd">
<svg version="1.0" xmlns="http://www.w3.org/2000/svg"
 width="512.000000pt" height="512.000000pt" viewBox="0 0 512.000000 512.000000"
 preserveAspectRatio="xMidYMid meet">
<metadata>
Created by potrace 1.11, written by Peter Selinger 2001-2013
</metadata>
<g transform="translate(0.000000,512.000000) scale(0.100000,-0.100000)"
fill="#000000" stroke="none">
<path d="M494 4778 c14 -46 17 -54 125 -367 39 -112 68 -207 66 -211 -3 -5 -1
-10 4 -12 5 -1 41 -97 81 -213 39 -115 80 -232 89 -260 10 -27 43 -126 75
-220 32 -93 62 -179 67 -190 5 -11 19 -52 31 -90 22 -68 23 -82 22 -457 -1
-435 8 -384 -81 -479 l-43 -45 62 -56 63 -56 -1 -184 c-1 -201 9 -269 56 -372
27 -60 103 -179 140 -219 20 -20 17 -25 -73 -142 -4 -5 -88 -119 -186 -253
l-178 -243 -74 -2 c-87 -2 -132 -21 -189 -80 -45 -45 -72 -116 -72 -186 2
-139 125 -257 266 -254 58 2 127 24 154 50 7 7 17 13 20 13 14 0 69 95 79 135
10 43 10 70 -1 126 -6 35 -5 38 81 115 48 43 114 104 146 134 66 61 75 69 207
190 51 47 99 91 107 99 12 11 20 9 56 -15 23 -16 44 -32 47 -35 3 -3 48 -34
100 -69 172 -114 452 -267 645 -354 33 -15 83 -37 110 -50 45 -21 53 -22 80
-10 416 189 677 336 933 526 81 60 96 67 110 56 16 -12 62 -54 149 -134 22
-22 74 -68 114 -104 40 -36 97 -88 128 -117 31 -28 70 -64 87 -80 134 -121
131 -118 122 -144 -17 -43 -3 -153 25 -201 136 -232 491 -136 490 132 -1 153
-118 266 -268 258 l-63 -3 -93 128 c-144 197 -338 461 -347 472 -4 6 -22 31
-40 56 l-33 46 30 45 c89 132 118 235 120 424 l1 139 38 34 c20 18 74 67 120
109 l83 75 -36 37 c-19 20 -35 38 -35 42 0 3 -20 25 -44 49 -36 37 -47 43 -62
34 -11 -5 -21 -13 -24 -16 -3 -3 -13 -8 -22 -12 -17 -6 -18 5 -18 151 -2 508
0 546 18 560 91 66 101 78 126 147 25 70 130 374 290 840 47 138 89 257 93
265 3 8 7 20 8 25 3 11 9 30 95 274 33 96 59 178 58 183 -2 4 -45 -13 -96 -37
-52 -25 -95 -45 -98 -45 -3 0 -86 -38 -199 -90 -209 -98 -257 -120 -260 -120
-4 0 -130 -58 -245 -113 l-65 -31 -1155 -1 -1155 0 -197 90 c-108 50 -194 94
-190 99 3 5 0 6 -5 3 -6 -4 -89 29 -185 72 -95 43 -209 95 -253 115 -44 20
-92 43 -107 51 -37 21 -39 20 -24 -27z"/>
</g>
</svg>
